<svg xmlns="http://www.w3.org/2000/svg" viewBox="0 0 100 100">
  <defs>
    <linearGradient id="gradient" x1="0%" y1="0%" x2="100%" y2="100%">
      <stop offset="0%" style="stop-color:#667eea;stop-opacity:1" />
      <stop offset="100%" style="stop-color:#764ba2;stop-opacity:1" />
    </linearGradient>
  </defs>
  
  <!-- 背景圓形 -->
  <circle cx="50" cy="50" r="45" fill="url(#gradient)" stroke="#fff" stroke-width="2"/>
  
  <!-- 人像圖示 -->
  <circle cx="50" cy="35" r="12" fill="#fff"/>
  <path d="M35 65 Q50 55 65 65 L65 75 Q50 85 35 75 Z" fill="#fff"/>
  
  <!-- 愛心裝飾 -->
  <path d="M25 25 Q25 20 30 20 Q35 20 35 25 Q35 20 40 20 Q45 20 45 25 Q45 30 40 35 L35 40 L30 35 Q25 30 25 25 Z" fill="#ff6b6b" opacity="0.8"/>
  <path d="M55 25 Q55 20 60 20 Q65 20 65 25 Q65 20 70 20 Q75 20 75 25 Q75 30 70 35 L65 40 L60 35 Q55 30 55 25 Z" fill="#ff6b6b" opacity="0.8"/>
</svg>
